<svg xmlns="http://www.w3.org/2000/svg" viewBox="0 0 24 24" id="subversion"><path d="M7.963.26c.036-.006.072-.007.108-.013l.014-.003-.122.016zM23.145 3l-.005.001h.006z"></path><path fill="#7D98C4" d="M23.14 3.25H0v6.323c3.244-1.353 7.587-2.72 13.031-4.095A164.085 164.085 0 0 1 23.14 3.25zm-7.631 3.036c-2.85.72-5.16 1.454-6.9 2.189-1.74.72-2.55 1.319-2.445 1.77.105.404.832.584 2.195.554.697-.014 1.834-.09 3.41-.24a292.24 292.24 0 0 0 6.093-.615C20.32 9.687 22.365 9.51 24 9.41V4.599l-.001.038c-3.15.465-5.985 1.019-8.49 1.649zM0 20.705v.045h24v-6.304c-3.285 1.296-7.362 2.555-12.23 3.785C7.236 19.375 3.312 20.2 0 20.705zm16.977-5.642c1.602-.703 2.34-1.297 2.22-1.779-.107-.42-.846-.635-2.217-.645-.703.01-1.67.06-2.904.15-1.236.09-2.774.234-4.61.426-2.85.304-5.216.537-7.1.694-.896.074-1.685.131-2.366.169v5.13c3.738-.55 7.116-1.205 10.13-1.966 2.962-.748 5.245-1.474 6.847-2.179zM1.195 17.43a.232.232 0 0 1-.164.066.236.236 0 0 1-.167-.068c-.023-.014-.04-.044-.05-.074 0-.015-.016-.045-.016-.09 0-.06.03-.12.075-.165.045-.045.105-.06.18-.06l-.018-.013c.06 0 .114.025.16.07a.233.233 0 0 1 0 .334zm0-1.514a.228.228 0 0 1-.164.07.227.227 0 0 1-.167-.07.23.23 0 0 1-.07-.165c0-.067.016-.123.06-.168a.234.234 0 0 1 .166-.068l.015.001c.06 0 .114.022.16.07.046.045.07.1.07.165 0 .066-.024.12-.07.165zm.814 1.514a.27.27 0 0 1-.27.048.194.194 0 0 1-.076-.05c-.03-.014-.045-.044-.06-.074-.015-.015-.015-.045-.015-.09 0-.06.014-.12.06-.165a.225.225 0 0 1 .164-.06l.033-.013c.063 0 .117.025.165.07a.23.23 0 0 1 .066.166c0 .066-.022.12-.067.168zm0-1.514c-.06.045-.106.07-.18.07a.213.213 0 0 1-.166-.07.235.235 0 0 1-.075-.165c0-.067.014-.123.06-.168a.233.233 0 0 1 .164-.068l.033.001c.063 0 .117.022.165.07.045.045.066.1.066.165 0 .066-.022.12-.067.165z"></path></svg>