<?xml version="1.0" encoding="UTF-8" standalone="no" ?>
<!DOCTYPE svg PUBLIC "-//W3C//DTD SVG 1.1//EN" "http://www.w3.org/Graphics/SVG/1.1/DTD/svg11.dtd">
<svg xmlns="http://www.w3.org/2000/svg" xmlns:xlink="http://www.w3.org/1999/xlink" version="1.1" width="500" height="500" viewBox="0 0 500 500" xml:space="preserve">
<desc>Created with Fabric.js 5.3.0</desc>
<defs>
</defs>
<g transform="matrix(4.5212453858 0 0 4.5212453318 266.09904 250)" id="taXb4JVFL-mWER0ufb7oH"  >
<g style=""   >
		<g transform="matrix(1 0 0 1 0 10.8355)" id="-Ykl-fAMRMIci8IiqOfzh"  >
<path style="stroke: none; stroke-width: 1; stroke-dasharray: none; stroke-linecap: butt; stroke-dashoffset: 0; stroke-linejoin: miter; stroke-miterlimit: 4; fill: rgb(230,163,41); fill-rule: nonzero; opacity: 1;"  transform=" translate(-39.281, -66.13)" d="M 78.562 21.671 L 0 21.671 L 7.365 101.53800000000001 L 39.277 110.58900000000001 L 71.189 101.53800000000001 Z" stroke-linecap="round" />
</g>
		<g transform="matrix(1 0 0 1 16.069 10.705)" id="ByvV0oA1tzchgeqTnfFnv"  >
<path style="stroke: none; stroke-width: 1; stroke-dasharray: none; stroke-linecap: butt; stroke-dashoffset: 0; stroke-linejoin: miter; stroke-miterlimit: 4; fill: rgb(241,191,34); fill-rule: nonzero; opacity: 1;"  transform=" translate(-55.35, -65.9995)" d="M 39.277 28.178 L 39.277 103.821 L 65.13300000000001 96.496 L 71.42300000000002 28.177999999999997 Z" stroke-linecap="round" />
</g>
		<g transform="matrix(1 0 0 1 0.4585 10.5135)" id="stWE7-FREG_Dv9MwylEJU"  >
<path style="stroke: none; stroke-width: 1; stroke-dasharray: none; stroke-linecap: butt; stroke-dashoffset: 0; stroke-linejoin: miter; stroke-miterlimit: 4; fill: rgb(255,255,255); fill-rule: nonzero; opacity: 1;"  transform=" translate(-39.7395, -65.808)" d="M 59.847 37.976 L 20.092 37.976 L 17.323 67.876 L 17.38 67.69 L 51.153999999999996 67.69 L 50.053999999999995 80.341 L 39.27799999999999 83.44099999999999 L 28.34299999999999 80.29099999999998 L 27.687999999999988 72.63399999999999 L 17.761999999999986 72.63399999999999 L 19.177999999999987 87.93399999999998 L 39.27799999999999 93.63999999999999 L 59.38699999999999 87.93399999999998 L 62.15599999999999 57.90199999999999 L 26.312 57.90199999999999 L 26.772000000000002 47.89599999999999 L 51.641000000000005 47.89599999999999 L 52.013000000000005 53.628999999999984 L 62.023 53.628999999999984 Z" stroke-linecap="round" />
</g>
		<g transform="matrix(1 0 0 1 -10.9765 10.509)" id="nf0j_RB0gPe4jeFRx0AL_"  >
<path style="stroke: none; stroke-width: 1; stroke-dasharray: none; stroke-linecap: butt; stroke-dashoffset: 0; stroke-linejoin: miter; stroke-miterlimit: 4; fill: rgb(235,235,235); fill-rule: nonzero; opacity: 1;"  transform=" translate(-28.3045, -65.8035)" d="M 39.286 37.976 L 20.092 37.976 L 17.323 67.876 L 17.38 67.69 L 39.285 67.69 L 39.285 57.936 L 27.71 57.936 L 28.17 47.93 L 39.286 47.93 Z M 27.71 72.639 L 17.761000000000003 72.639 L 19.177000000000003 87.931 L 39.277 93.631 L 39.277 83.455 L 28.342 80.297 Z" stroke-linecap="round" />
</g>
		<g transform="matrix(1 0 0 1 0.0005 -47.8385)" id="Axk1xLNmzUF7A8oJplDSS"  >
<path style="stroke: none; stroke-width: 1; stroke-dasharray: none; stroke-linecap: butt; stroke-dashoffset: 0; stroke-linejoin: miter; stroke-miterlimit: 4; fill: rgb(0,0,0); fill-rule: nonzero; opacity: 1;"  transform=" translate(-39.2815, -7.456)" d="M 31.638 9.891 L 24.644000000000002 9.891 L 24.644000000000002 14.911999999999999 L 36.644000000000005 14.911999999999999 L 36.644000000000005 0 L 31.644000000000005 0 Z M 53.915 0.08 L 41.723 0.08 L 41.723 5.3 C 43.351 6.928 44.199999999999996 7.711 46.598 10.068999999999999 L 41.723 10.068999999999999 L 41.723 14.828999999999999 L 53.914 14.828999999999999 L 53.914 10.076999999999998 L 49.044000000000004 5.307999999999998 L 53.919000000000004 5.307999999999998 Z" stroke-linecap="round" />
</g>
</g>
</g>
</svg>