<?xml version="1.0" encoding="UTF-8" standalone="no" ?>
<!DOCTYPE svg PUBLIC "-//W3C//DTD SVG 1.1//EN" "http://www.w3.org/Graphics/SVG/1.1/DTD/svg11.dtd">
<svg xmlns="http://www.w3.org/2000/svg" xmlns:xlink="http://www.w3.org/1999/xlink" version="1.1" width="500" height="500" viewBox="0 0 500 500" xml:space="preserve">
<desc>Created with Fabric.js 5.3.0</desc>
<defs>
</defs>
<g transform="matrix(16.6666666667 0 0 16.6666666667 250 250)" id="7nA84JofV7o0JNQMkXqE5"  >
<g style=""   >
		<g transform="matrix(1 0 0 1 0 0)" id="LdZyu14yi5xF2SytVcKLy"  >
<path style="stroke: none; stroke-width: 1; stroke-dasharray: none; stroke-linecap: butt; stroke-dashoffset: 0; stroke-linejoin: miter; stroke-miterlimit: 4; fill: rgb(22,119,199); fill-rule: nonzero; opacity: 1;"  transform=" translate(-12, -12)" d="M 0 12 L 0 24 L 24 24 L 24 0 L 0 0 z" stroke-linecap="round" />
</g>
		<g transform="matrix(1 0 0 1 -6 0)" id="W_5Tmn44wXbao5l59ch7B"  >
<path style="stroke: none; stroke-width: 1; stroke-dasharray: none; stroke-linecap: butt; stroke-dashoffset: 0; stroke-linejoin: miter; stroke-miterlimit: 4; fill: rgb(19,104,173); fill-rule: nonzero; opacity: 1;"  transform=" translate(-6, -12)" d="M 12 0 L 0 0 L 0 24 L 12 24 z" stroke-linecap="round" />
</g>
		<g transform="matrix(1 0 0 1 1.6760855266 4.4900508378)" id="qPl3cho-Al2ZkRP_DEU3J"  >
<path style="stroke: none; stroke-width: 1; stroke-dasharray: none; stroke-linecap: butt; stroke-dashoffset: 0; stroke-linejoin: miter; stroke-miterlimit: 4; fill: rgb(255,255,255); fill-rule: nonzero; opacity: 1;"  transform=" translate(-13.6760855266, -16.4900508378)" d="M 14.563 19.626 C 14.671000000000001 19.564 15.074 19.332 15.455 19.111 L 16.145 18.711000000000002 L 16.29 18.925 C 16.493 19.233 16.933 19.656000000000002 17.2 19.798000000000002 C 17.966 20.202 19.017 20.146 19.535 19.680000000000003 C 19.728 19.516000000000002 19.849 19.274000000000004 19.849 19.005000000000003 L 19.848 18.958000000000002 L 19.848 18.96 C 19.848 18.682000000000002 19.813 18.560000000000002 19.668 18.351 C 19.482 18.084 19.101 17.861 18.019 17.39 C 16.781999999999996 16.857 16.247999999999998 16.527 15.761 16.001 C 15.466999999999999 15.667000000000002 15.239999999999998 15.264000000000001 15.107999999999999 14.823 L 15.101999999999999 14.801 C 15.011 14.462 14.987999999999998 13.611 15.059999999999999 13.27 C 15.315 12.074 16.218 11.241 17.520999999999997 10.992999999999999 C 17.943999999999996 10.912999999999998 18.926999999999996 10.941999999999998 19.342 11.046 L 19.342 11.046999999999999 C 19.951999999999998 11.2 20.416 11.469999999999999 20.843 11.911999999999999 C 21.064 12.146999999999998 21.392 12.578 21.418 12.681 C 21.426 12.712 20.381999999999998 13.411 19.75 13.803999999999998 C 19.727 13.817999999999998 19.635 13.719999999999999 19.533 13.567999999999998 C 19.223000000000003 13.117999999999999 18.900000000000002 12.923999999999998 18.405 12.888999999999998 C 17.677 12.838999999999997 17.209 13.219999999999997 17.212 13.856999999999998 L 17.211 13.893999999999998 C 17.211 14.043999999999999 17.249 14.186999999999998 17.316 14.309999999999999 L 17.314 14.306 C 17.475 14.636999999999999 17.772 14.835999999999999 18.705 15.238999999999999 C 20.424 15.978 21.159 16.465 21.616 17.159 C 22.126 17.932 22.241 19.166999999999998 21.894 20.085 C 21.514 21.083000000000002 20.569 21.761 19.238999999999997 21.984 C 18.827999999999996 22.057000000000002 17.851999999999997 22.046000000000003 17.410999999999998 21.967000000000002 C 16.447 21.795 15.532999999999998 21.318 14.968999999999998 20.693 C 14.747999999999998 20.451 14.316999999999998 19.814 14.343999999999998 19.769000000000002 C 14.354 19.751 14.453 19.689 14.563 19.626 L 14.563 19.626 z M 5.259 12.064 C 5.259 11.531 5.269 11.085 5.285 11.075 C 5.296 11.058 7.198 11.049999999999999 9.501999999999999 11.053999999999998 L 13.697 11.064999999999998 L 13.707999999999998 12.044999999999998 L 13.715999999999998 13.027999999999999 L 10.590999999999998 13.027999999999999 L 10.590999999999998 21.903999999999996 L 8.38 21.903999999999996 L 8.38 13.027999999999997 L 5.259 13.027999999999997 L 5.259 12.064 L 5.259 12.064 z" stroke-linecap="round" />
</g>
		<g transform="matrix(1 0 0 1 6.216979796 7.2585)" id="QW6lGr5mOThRuReKXf8h5"  >
<path style="stroke: none; stroke-width: 1; stroke-dasharray: none; stroke-linecap: butt; stroke-dashoffset: 0; stroke-linejoin: miter; stroke-miterlimit: 4; fill: rgb(222,222,222); fill-rule: nonzero; opacity: 1;"  transform=" translate(-18.216979796, -19.2585)" d="M 21.007 16.488 L 16.306 16.488 C 16.698 16.776 17.207 17.038 18.019000000000002 17.387999999999998 C 19.102 17.858999999999998 19.482000000000003 18.083 19.668000000000003 18.348999999999997 C 19.813000000000002 18.557999999999996 19.848000000000003 18.679999999999996 19.848000000000003 18.958 L 19.848000000000003 18.956 L 19.849000000000004 19.003 C 19.849000000000004 19.273 19.728000000000005 19.514 19.535000000000004 19.678 C 19.250000000000004 19.934 18.804000000000002 20.066000000000003 18.333000000000006 20.066000000000003 C 17.947000000000006 20.066000000000003 17.545000000000005 19.978 17.200000000000006 19.796000000000003 C 16.933000000000007 19.655000000000005 16.492000000000008 19.232000000000003 16.290000000000006 18.923000000000002 L 16.145000000000007 18.709000000000003 L 15.455000000000007 19.109 C 15.074000000000007 19.330000000000002 14.671000000000006 19.562 14.563000000000008 19.624000000000002 C 14.453000000000008 19.687 14.354000000000008 19.749000000000002 14.343000000000007 19.765 C 14.316000000000008 19.810000000000002 14.747000000000007 20.447 14.968000000000007 20.689 C 15.532000000000007 21.314 16.44600000000001 21.791 17.410000000000007 21.963 C 17.651000000000007 22.006 18.05100000000001 22.029 18.431000000000008 22.029 C 18.748000000000008 22.029 19.05100000000001 22.013 19.238000000000007 21.98 C 20.568000000000005 21.757 21.513000000000005 21.079 21.893000000000008 20.081 C 22.24000000000001 19.163 22.125000000000007 17.928 21.61500000000001 17.155 C 21.456 16.916 21.263 16.699 21.007 16.488 L 21.007 16.488 z" stroke-linecap="round" />
</g>
		<g transform="matrix(1 0 0 1 -2.5145 7.1965)" id="Klf99x-CoQxpgtm_B1UxC"  >
<path style="stroke: none; stroke-width: 1; stroke-dasharray: none; stroke-linecap: butt; stroke-dashoffset: 0; stroke-linejoin: miter; stroke-miterlimit: 4; fill: rgb(222,222,222); fill-rule: nonzero; opacity: 1;"  transform=" translate(-9.4855, -19.1965)" d="M 10.591 16.488 L 8.379999999999999 16.488 L 8.379999999999999 21.905 L 10.591 21.905 z" stroke-linecap="round" />
</g>
</g>
</g>
</svg>