<?xml version="1.0" encoding="UTF-8" standalone="no" ?>
<!DOCTYPE svg PUBLIC "-//W3C//DTD SVG 1.1//EN" "http://www.w3.org/Graphics/SVG/1.1/DTD/svg11.dtd">
<svg xmlns="http://www.w3.org/2000/svg" xmlns:xlink="http://www.w3.org/1999/xlink" version="1.1" viewBox="0 0 100 100" xml:space="preserve">
<desc>Created with Fabric.js 5.3.0</desc>
<defs>
</defs>
<g transform="matrix(0.5208333333 0 0 0.5208333333 50 50)" id="cAxjLAr8IZwoWTEB8Vq_r"  >
<path style="stroke: none; stroke-width: 1; stroke-dasharray: none; stroke-linecap: butt; stroke-dashoffset: 0; stroke-linejoin: miter; stroke-miterlimit: 4; fill: currentColor; fill-rule: evenodd; opacity: 1;"  transform=" translate(-96, -96)" d="M 24 0 L 168 0 C 181.255 0 192 10.745 192 24 L 192 168 C 192 181.255 181.255 192 168 192 L 24 192 C 10.745 192 0 181.255 0 168 L 0 24 C 0 10.745 10.745 0 24 0 Z M 49 57.92 L 49 65.48 L 67 65.48 L 80.68 142.52 L 98.5 141.26000000000002 C 116.02 119.06000000000002 127.84 102.44000000000003 133.96 91.40000000000002 C 140.20000000000002 80.24000000000002 143.32 70.94000000000003 143.32 63.50000000000002 C 143.32 59.060000000000024 142 55.700000000000024 139.35999999999999 53.42000000000002 C 136.83999999999997 51.14000000000002 133.66 50.00000000000002 129.82 50.00000000000002 C 122.61999999999999 50.00000000000002 116.61999999999999 53.060000000000024 111.82 59.18000000000002 C 116.5 62.30000000000002 119.67999999999999 64.88000000000002 121.35999999999999 66.92000000000002 C 123.15999999999998 68.84000000000002 124.05999999999999 71.42000000000002 124.05999999999999 74.66000000000001 C 124.05999999999999 80.06000000000002 122.43999999999998 86.18 119.19999999999999 93.02000000000001 C 116.07999999999998 99.86000000000001 112.65999999999998 105.92000000000002 108.93999999999998 111.20000000000002 C 106.53999999999998 114.56000000000002 103.47999999999999 118.70000000000002 99.75999999999999 123.62000000000002 L 88.06 57.2 C 87.10000000000001 52.400000000000006 84.10000000000001 50 79.06 50 C 76.78 50 72.4 50.96 65.92 52.88 C 59.44 54.68 53.800000000000004 56.36 49 57.92 Z" stroke-linecap="round" />
</g>
</svg>