<svg xmlns="http://www.w3.org/2000/svg" width="512" height="512" id="html"><path d="M428.136 454.369H83.865a5.02 5.02 0 0 1-5.022-5.021V24.26a5.02 5.02 0 0 1 5.022-5.021h344.271a5.02 5.02 0 0 1 5.021 5.021v425.087a5.02 5.02 0 0 1-5.021 5.022zm-339.25-10.041h334.228V29.282H88.886v415.046z"></path><path d="M387.789 179.595H124.215c-9.218 0-16.721-7.555-16.721-16.836V70.473c0-9.282 7.502-16.831 16.721-16.831h263.574c9.217 0 16.716 7.549 16.716 16.831v92.286c0 9.281-7.499 16.836-16.716 16.836zM124.215 63.684c-3.684 0-6.678 3.047-6.678 6.789v92.286c0 3.746 2.994 6.793 6.678 6.793h263.574c3.677 0 6.674-3.047 6.674-6.793V70.473c0-3.742-2.997-6.789-6.674-6.789H124.215z"></path><path d="M144.24 149.472h-12.278V138.69h12.278v10.782zm61.548 0h-12.137V124.07h-24.849v25.402h-12.278V88.045h12.278v26.43h24.849v-26.43h12.137v61.427zm53.5-51.828h-17.249v51.828h-12.278V97.644h-17.104v-9.599h46.63v9.599zm22.659-9.599 15.496 45.332h.292l15.643-45.332h15.936v61.427h-12.132V131.16l1.168-27.166h-.293l-16.372 45.478H293.5l-16.228-45.331-.145.146 1.167 26.873v18.312h-12.277V88.045h15.93zm70.901 51.974h27.195v9.453h-39.328V88.045h12.133v51.974zM390.855 474.006H121.29a5.02 5.02 0 1 1 0-10.042h269.565c2.776 0 5.021 2.246 5.021 5.021s-2.244 5.021-5.021 5.021zM366.884 492.762H145.116a5.02 5.02 0 1 1 0-10.042h221.768c2.775 0 5.021 2.246 5.021 5.021s-2.246 5.021-5.021 5.021zM210.461 364.818a6.25 6.25 0 0 1-4.311-1.717l-57.125-54.01c-.042-.045-.088-.084-.13-.125a6.334 6.334 0 0 1-1.269-1.793l-.003-.004a6.296 6.296 0 0 1-.594-2.672v-.008c0-.912.199-1.824.6-2.67.3-.635.712-1.229 1.236-1.758l.159-.15 57.122-54.151a6.265 6.265 0 0 1 8.868.237 6.271 6.271 0 0 1-.237 8.869l-52.344 49.627 52.339 49.492a6.273 6.273 0 0 1 .249 8.869 6.25 6.25 0 0 1-4.56 1.964zm91.224 0a6.268 6.268 0 0 1-4.56-1.959 6.28 6.28 0 0 1 .243-8.869l52.216-49.496-52.226-49.632a6.277 6.277 0 0 1-.222-8.869c2.387-2.513 6.365-2.608 8.874-.227l56.97 54.146c.062.061.121.115.182.176a6.203 6.203 0 0 1 1.188 1.678c.419.865.626 1.803.626 2.744 0 .926-.212 1.857-.626 2.719a6.307 6.307 0 0 1-1.207 1.709c-.056.051-.112.1-.162.15L306 363.098a6.242 6.242 0 0 1-4.315 1.72z"></path></svg>