<?xml version="1.0" encoding="UTF-8" standalone="no" ?>
<!DOCTYPE svg PUBLIC "-//W3C//DTD SVG 1.1//EN" "http://www.w3.org/Graphics/SVG/1.1/DTD/svg11.dtd">
<svg xmlns="http://www.w3.org/2000/svg" xmlns:xlink="http://www.w3.org/1999/xlink" version="1.1" width="500" height="500" viewBox="0 0 500 500" xml:space="preserve">
<desc>Created with Fabric.js 5.3.0</desc>
<defs>
</defs>
<g transform="matrix(0.2000047208 0 0 0.20000472 265.804185 250)" id="4ggu2G-_uk5CBu9d3SeFT"  >
<g style=""   >
		<g transform="matrix(6.9252077562 0 0 6.9252077562 -0.0734072022 241.8767313019)" id="0MLBigC0M2eB2kfPCI91y"  >
<path style="stroke: none; stroke-width: 1; stroke-dasharray: none; stroke-linecap: butt; stroke-dashoffset: 0; stroke-linejoin: miter; stroke-miterlimit: 4; fill: rgb(228,77,38); fill-rule: nonzero; opacity: 1;"  transform=" translate(-128, -215.427)" d="M 255.555 70.766 L 232.31400000000002 331.12600000000003 L 127.84400000000002 360.088 L 23.66200000000002 331.166 L 0.445 70.766 L 255.555 70.766 z" stroke-linecap="round" />
</g>
		<g transform="matrix(6.9252077562 0 0 6.9252077562 360.9965373961 238.9439058172)" id="8NzGaaOdlZtfe2SLBdJcY"  >
<path style="stroke: none; stroke-width: 1; stroke-dasharray: none; stroke-linecap: butt; stroke-dashoffset: 0; stroke-linejoin: miter; stroke-miterlimit: 4; fill: rgb(241,101,41); fill-rule: nonzero; opacity: 1;"  transform=" translate(-180.1385, -215.0035)" d="M 128 337.95 L 212.417 314.54699999999997 L 232.277 92.05699999999996 L 128 92.05699999999996 L 128 337.95 z" stroke-linecap="round" />
</g>
		<g transform="matrix(6.9252077562 0 0 6.9252077562 -277.3691135734 234.913434903)" id="e6yIfHl6nTpPYQv2lkNNw"  >
<path style="stroke: none; stroke-width: 1; stroke-dasharray: none; stroke-linecap: butt; stroke-dashoffset: 0; stroke-linejoin: miter; stroke-miterlimit: 4; fill: rgb(235,235,235); fill-rule: nonzero; opacity: 1;"  transform=" translate(-87.9585, -214.4215)" d="M 82.82 155.932 L 128 155.932 L 128 123.99499999999999 L 47.917 123.99499999999999 L 48.681000000000004 132.563 L 56.531000000000006 220.57299999999998 L 128 220.57299999999998 L 128 188.63599999999997 L 85.739 188.63599999999997 L 82.82000000000001 155.93199999999996 z M 90.018 236.542 L 57.958 236.542 L 62.432 286.688 L 127.85300000000001 304.848 L 128 304.808 L 128 271.58 L 127.86 271.61699999999996 L 92.292 262.013 L 90.018 236.54199999999997 z" stroke-linecap="round" />
</g>
		<g transform="matrix(6.9252077562 0 0 6.9252077562 1.4813019391 -1081.8628808864)" id="Pj0jYSgO2VgucLfNsEXh0"  >
<path style="stroke: none; stroke-width: 1; stroke-dasharray: none; stroke-linecap: butt; stroke-dashoffset: 0; stroke-linejoin: miter; stroke-miterlimit: 4; fill: rgb(0,0,0); fill-rule: nonzero; opacity: 1;"  transform=" translate(-128.2245, -24.279)" d="M 24.18 0 L 40.41 0 L 40.41 16.035 L 55.257 16.035 L 55.257 0 L 71.488 0 L 71.488 48.558 L 55.257999999999996 48.558 L 55.257999999999996 32.298 L 40.411 32.298 L 40.411 48.55800000000001 L 24.181 48.55800000000001 L 24.181 0 z M 92.83 16.103 L 78.544 16.103 L 78.544 0 L 123.358 0 L 123.358 16.103 L 109.063 16.103 L 109.063 48.558 L 92.833 48.558 L 92.833 16.103 L 92.832 16.103 z M 130.47 0 L 147.393 0 L 157.803 17.062 L 168.203 0 L 185.133 0 L 185.133 48.558 L 168.969 48.558 L 168.969 24.49 L 157.803 41.754999999999995 L 157.523 41.754999999999995 L 146.35 24.49 L 146.35 48.558 L 130.47 48.558 L 130.47 0 z M 193.21 0 L 209.445 0 L 209.445 32.508 L 232.269 32.508 L 232.269 48.55800000000001 L 193.209 48.55800000000001 L 193.209 0 z" stroke-linecap="round" />
</g>
		<g transform="matrix(6.9252077562 0 0 6.9252077562 276.1765927978 234.8614958449)" id="dAUhxwePbKKXMkY3ybVV1"  >
<path style="stroke: none; stroke-width: 1; stroke-dasharray: none; stroke-linecap: butt; stroke-dashoffset: 0; stroke-linejoin: miter; stroke-miterlimit: 4; fill: rgb(255,255,255); fill-rule: nonzero; opacity: 1;"  transform=" translate(-167.8905, -214.414)" d="M 127.89 220.573 L 167.21699999999998 220.573 L 163.509 261.993 L 127.88899999999998 271.60699999999997 L 127.88899999999998 304.83299999999997 L 193.36199999999997 286.688 L 193.84199999999996 281.292 L 201.34799999999996 197.212 L 202.12699999999995 188.636 L 127.89 188.636 L 127.89 220.573 z M 127.89 155.854 L 127.89 155.93200000000002 L 205.03300000000002 155.93200000000002 L 205.673 148.75400000000002 L 207.129 132.56300000000002 L 207.892 123.99500000000002 L 127.89 123.99500000000002 L 127.89 155.85500000000002 z" stroke-linecap="round" />
</g>
</g>
</g>
</svg>