<?xml version="1.0" encoding="UTF-8" standalone="no" ?>
<!DOCTYPE svg PUBLIC "-//W3C//DTD SVG 1.1//EN" "http://www.w3.org/Graphics/SVG/1.1/DTD/svg11.dtd">
<svg xmlns="http://www.w3.org/2000/svg" xmlns:xlink="http://www.w3.org/1999/xlink" version="1.1" width="500" height="500" viewBox="0 0 500 500" xml:space="preserve">
<desc>Created with Fabric.js 5.3.0</desc>
<defs>
</defs>
<g transform="matrix(0.2292 0 0 0.2292 266 250)" id="zb8_2M9vYTgtQwViLlLJr"  >
<g style=""   >
		<g transform="matrix(4.6418014646 0 0 4.6418014646 0 0.0023209007)" id="e-H6wZBfN5fKQv5h3KSPE"  >
<path style="stroke: none; stroke-width: 1; stroke-dasharray: none; stroke-linecap: butt; stroke-dashoffset: 0; stroke-linejoin: miter; stroke-miterlimit: 4; fill: none; fill-rule: nonzero; opacity: 1;"  transform=" translate(-269.292, -269.2915)" d="M 0 0 L 538.584 0 L 538.584 538.583 L 0 538.583 L 0 0 z" stroke-linecap="round" />
</g>
		<g transform="matrix(4.6418014646 0 0 4.6418014646 -0.0046418015 214.62993702)" id="buSSMDOlP-2E5KmfDwh6S"  >
<path style="stroke: none; stroke-width: 1; stroke-dasharray: none; stroke-linecap: butt; stroke-dashoffset: 0; stroke-linejoin: miter; stroke-miterlimit: 4; fill: rgb(32,98,175); fill-rule: nonzero; opacity: 1;"  transform=" translate(-269.291, -315.5295)" d="M 405.5 467.454 L 269.29 504.13 L 133.07800000000003 467.454 L 101.64600000000003 126.92900000000003 L 436.93600000000004 126.92900000000003 L 405.5 467.454 z" stroke-linecap="round" />
</g>
		<g transform="matrix(4.6418014646 0 0 4.6418014646 315.5821561725 210.9489884586)" id="7U1ItMhRHa2JMPIA9Z4Gu"  >
<path style="stroke: none; stroke-width: 1; stroke-dasharray: none; stroke-linecap: butt; stroke-dashoffset: 0; stroke-linejoin: miter; stroke-miterlimit: 4; fill: rgb(60,156,215); fill-rule: nonzero; opacity: 1;"  transform=" translate(-337.279, -314.7365)" d="M 269.289 154.511 L 269.289 474.87800000000004 L 269.597 474.96200000000005 L 379.82599999999996 445.28000000000003 L 405.26899999999995 154.51100000000002 L 269.289 154.51100000000002 z" stroke-linecap="round" />
</g>
		<g transform="matrix(4.6418014646 0 0 4.6418014646 0 -944.5880308364)" id="trxPaZnQ8GrCptyUn3aeD"  >
<path style="stroke: none; stroke-width: 1; stroke-dasharray: none; stroke-linecap: butt; stroke-dashoffset: 0; stroke-linejoin: miter; stroke-miterlimit: 4; fill: rgb(0,0,0); fill-rule: nonzero; opacity: 1;"  transform=" translate(-269.292, -65.795)" d="M 191.985 76.899 L 191.985 56.631 L 221.556 56.631 L 221.556 34.453 L 169.80700000000002 34.453 L 169.80700000000002 97.137 L 221.556 97.137 L 221.556 76.899 L 191.985 76.899 z M 274.75100000000003 56.631 L 295.425 56.631 L 295.425 34.453 L 243.67100000000002 34.453 L 243.67100000000002 56.631 C 250.59500000000003 63.555 254.20600000000002 66.869 264.22 76.883 C 258.36600000000004 76.883 243.67100000000002 76.904 243.67100000000002 76.90299999999999 L 243.67100000000002 97.137 L 295.425 97.137 L 295.425 76.899 L 274.75100000000003 56.631 z M 348.10300000000007 56.631 L 368.77600000000007 56.631 L 368.77600000000007 34.453 L 317.02 34.453 L 317.02 56.631 C 323.94399999999996 63.555 327.55699999999996 66.869 337.57099999999997 76.883 C 331.719 76.883 317.02 76.904 317.02 76.90299999999999 L 317.02 97.137 L 368.777 97.137 L 368.777 76.899 L 348.103 56.631 z" stroke-linecap="round" />
</g>
		<g transform="matrix(4.6418014646 0 0 4.6418014646 15.5129004946 -50.9646591804)" id="IfoZpNcHvcNvegjh6sA7j"  >
<path style="stroke: none; stroke-width: 1; stroke-dasharray: none; stroke-linecap: butt; stroke-dashoffset: 0; stroke-linejoin: miter; stroke-miterlimit: 4; fill: rgb(255,255,255); fill-rule: nonzero; opacity: 1;"  transform=" translate(-272.634, -258.3115)" d="M 269.168 239.656 L 171.678 280.258 L 174.911 320.457 L 269.168 280.156 L 369.433 237.288 L 373.59 196.166 L 269.168 239.656 z" stroke-linecap="round" />
</g>
		<g transform="matrix(4.6418014646 0 0 4.6418014646 -226.8448375741 49.9713136669)" id="c8EvZeolmYkbTsByTvdU9"  >
<linearGradient id="SVGID_20" gradientUnits="userSpaceOnUse" gradientTransform="matrix(1 0 0 -1 1045.93 1658.759)"  x1="-825.508" y1="1338.301" x2="-825.508" y2="1419.102">
<stop offset="38.7%" style="stop-color:rgb(209,211,212);stop-opacity: 0"/>
<stop offset="100%" style="stop-color:rgb(209,211,212);stop-opacity: 1"/>
</linearGradient>
<path style="stroke: none; stroke-width: 1; stroke-dasharray: none; stroke-linecap: butt; stroke-dashoffset: 0; stroke-linejoin: miter; stroke-miterlimit: 4; fill: url(#SVGID_20); fill-rule: nonzero; opacity: 1;"  transform=" translate(-220.422, -280.0565)" d="M 171.677 280.258 L 174.91 320.457 L 269.16700000000003 280.156 L 269.16700000000003 239.656 L 171.67700000000002 280.258 z" stroke-linecap="round" />
</g>
		<g transform="matrix(4.6418014646 0 0 4.6418014646 241.7775128856 -144.4969586917)" id="KKQ43RihnXQXFc5ZDB_U7"  >
<linearGradient id="SVGID_21" gradientUnits="userSpaceOnUse" gradientTransform="matrix(1 0 0 -1 1045.93 1658.759)"  x1="-724.552" y1="1378.602" x2="-724.552" y2="1462.591">
<stop offset="38.7%" style="stop-color:rgb(209,211,212);stop-opacity: 0"/>
<stop offset="100%" style="stop-color:rgb(209,211,212);stop-opacity: 1"/>
</linearGradient>
<path style="stroke: none; stroke-width: 1; stroke-dasharray: none; stroke-linecap: butt; stroke-dashoffset: 0; stroke-linejoin: miter; stroke-miterlimit: 4; fill: url(#SVGID_21); fill-rule: nonzero; opacity: 1;"  transform=" translate(-321.379, -238.1615)" d="M 373.59 196.167 L 269.168 239.656 L 269.168 280.156 L 369.433 237.288 L 373.59 196.167 z" stroke-linecap="round" />
</g>
		<g transform="matrix(4.6418014646 0 0 4.6418014646 -2.0075791334 404.7836549173)" id="rvWskYr2HvHy1BWy7HO3K"  >
<linearGradient id="SVGID_22" gradientUnits="userSpaceOnUse" gradientTransform="matrix(1 0 0 -1 1045.93 1658.759)"  x1="-874.103" y1="1302.263" x2="-680.039" y2="1302.263">
<stop offset="0%" style="stop-color:rgb(232,231,229);stop-opacity: 1"/>
<stop offset="100%" style="stop-color:rgb(255,255,255);stop-opacity: 1"/>
</linearGradient>
<path style="stroke: none; stroke-width: 1; stroke-dasharray: none; stroke-linecap: butt; stroke-dashoffset: 0; stroke-linejoin: miter; stroke-miterlimit: 4; fill: url(#SVGID_22); fill-rule: nonzero; opacity: 1;"  transform=" translate(-268.8595, -356.495)" d="M 171.827 280.258 L 175.061 320.457 L 319.68600000000004 320.918 L 316.451 374.516 L 268.861 387.91400000000004 L 223.113 376.36300000000006 L 220.341 343.095 L 177.833 343.095 L 183.378 407.32000000000005 L 269.323 432.732 L 354.80199999999996 407.781 L 365.89199999999994 280.25800000000004 L 171.827 280.25800000000004 z" stroke-linecap="round" />
</g>
		<g transform="matrix(4.6418014646 0 0 4.6418014646 -226.8401957726 404.7859758181)" id="nPrGKV70GCw-05czOIFm8"  >
<path style="stroke: none; stroke-width: 1; stroke-dasharray: none; stroke-linecap: butt; stroke-dashoffset: 0; stroke-linejoin: miter; stroke-miterlimit: 4; fill: rgb(0,0,0); fill-rule: nonzero; opacity: 0.05;"  transform=" translate(-220.423, -356.4955)" d="M 269.168 280.258 L 171.678 280.258 L 174.911 320.457 L 269.168 320.758 L 269.168 280.258 z M 269.168 387.786 L 268.706 387.915 L 222.96400000000003 376.36400000000003 L 220.19200000000004 343.096 L 177.68500000000003 343.096 L 183.22900000000004 407.321 L 269.168 432.733 L 269.168 387.786 z" stroke-linecap="round" />
</g>
		<g transform="matrix(4.6418014646 0 0 4.6418014646 -4.8646079349 -243.9870103828)" id="hK2ZUwnqmV9rnbRgPsw3r"  >
<linearGradient id="SVGID_23" gradientUnits="userSpaceOnUse" gradientTransform="matrix(1 0 0 -1 1045.93 1658.759)"  x1="-883.032" y1="1442.031" x2="-672.341" y2="1442.031">
<stop offset="0%" style="stop-color:rgb(232,231,229);stop-opacity: 1"/>
<stop offset="100%" style="stop-color:rgb(255,255,255);stop-opacity: 1"/>
</linearGradient>
<path style="stroke: none; stroke-width: 1; stroke-dasharray: none; stroke-linecap: butt; stroke-dashoffset: 0; stroke-linejoin: miter; stroke-miterlimit: 4; fill: url(#SVGID_23); fill-rule: nonzero; opacity: 1;"  transform=" translate(-268.244, -216.728)" d="M 162.898 196.167 L 373.59 196.167 L 369.433 237.289 L 167.98 237.289 L 162.898 196.16699999999997 z" stroke-linecap="round" />
</g>
		<g transform="matrix(4.6418014646 0 0 4.6418014646 -247.2177042021 -243.9870103828)" id="zyWAqw_lk9Sp5yHS7hME5"  >
<path style="stroke: none; stroke-width: 1; stroke-dasharray: none; stroke-linecap: butt; stroke-dashoffset: 0; stroke-linejoin: miter; stroke-miterlimit: 4; fill: rgb(0,0,0); fill-rule: nonzero; opacity: 0.05;"  transform=" translate(-216.033, -216.728)" d="M 269.168 196.167 L 162.89800000000002 196.167 L 167.98000000000002 237.289 L 269.168 237.289 L 269.168 196.16699999999997 z" stroke-linecap="round" />
</g>
</g>
</g>
</svg>